<svg style="position: absolute; width: 0; height: 0;" width="0" height="0" version="1.1" xmlns="http://www.w3.org/2000/svg" xmlns:xlink="http://www.w3.org/1999/xlink">
<defs>
<symbol id="icon-search" viewBox="0 0 1024 1024">
<title>search</title>
<path class="path1" d="M1014.294 968.29l-264.38-260.155c69.233-75.219 111.771-174.698 111.771-284.164-0.033-234.168-192.91-423.971-430.854-423.971s-430.821 189.803-430.821 423.971 192.877 423.971 430.821 423.971c102.808 0 197.102-35.56 271.168-94.678l265.406 261.181c12.932 12.74 33.927 12.74 46.859 0 12.962-12.738 12.962-33.415 0.030-46.155zM430.831 782.711c-201.326 0-364.533-160.613-364.533-358.74s163.207-358.74 364.533-358.74c201.328 0 364.533 160.613 364.533 358.74s-163.205 358.74-364.533 358.74z"></path>
</symbol>
</defs>
</svg>
