<?xml version="1.0" encoding="UTF-8"?><!DOCTYPE svg PUBLIC "-//W3C//DTD SVG 1.1//EN" "http://www.w3.org/Graphics/SVG/1.1/DTD/svg11.dtd"><svg xmlns="http://www.w3.org/2000/svg"><symbol id="icon-add" viewBox="0 0 32 32"><path d="M25.333 17.333h-8v8h-2.667v-8h-8v-2.667h8v-8h2.667v8h8v2.667z"/></symbol><symbol id="icon-arrow-downward" viewBox="0 0 32 32"><path d="M26.667 16l-1.88-1.88-7.453 7.44V5.333h-2.667V21.56l-7.44-7.453L5.334 16l10.667 10.667L26.668 16z"/></symbol><symbol id="icon-arrow-upward" viewBox="0 0 32 32"><path d="M5.333 16l1.887 1.887 7.447-7.447v16.227h2.667V10.44l7.447 7.447L26.668 16 16.001 5.333 5.334 16z"/></symbol><symbol id="icon-attach" viewBox="0 0 32 32"><path d="M22 8v15.333c0 2.947-2.387 5.333-5.333 5.333s-5.333-2.387-5.333-5.333V6.666a3.334 3.334 0 0 1 6.666 0v14a1.333 1.333 0 1 1-2.666 0V7.999h-2v12.667a3.334 3.334 0 0 0 6.666 0v-14c0-2.947-2.387-5.333-5.333-5.333S9.334 3.72 9.334 6.666v16.667a7.334 7.334 0 0 0 14.666 0V8h-2z"/></symbol><symbol id="icon-check" viewBox="0 0 32 32"><path d="M16 2.667C8.633 2.667 2.667 8.634 2.667 16c0 7.36 5.967 13.333 13.333 13.333 7.36 0 13.333-5.973 13.333-13.333C29.333 8.633 23.36 2.667 16 2.667zm-2.667 20L6.666 16l1.887-1.887 4.78 4.78L23.446 8.78l1.887 1.887-12 12z"/></symbol><symbol id="icon-chevron-left" viewBox="0 0 32 32"><path d="M20.553 9.887L18.666 8l-8 8 8 8 1.887-1.887L14.44 16z"/></symbol><symbol id="icon-chevron-right" viewBox="0 0 32 32"><path d="M13.333 8l-1.887 1.887L17.559 16l-6.113 6.113L13.333 24l8-8z"/></symbol><symbol id="icon-close" viewBox="0 0 32 32"><path d="M25.333 8.553l-1.887-1.887-7.447 7.447-7.447-7.447-1.887 1.887L14.112 16l-7.447 7.447 1.887 1.887 7.447-7.447 7.447 7.447 1.887-1.887L17.886 16z"/></symbol><symbol id="icon-copy" viewBox="0 0 32 32"><path d="M21.333 1.333h-16A2.666 2.666 0 0 0 2.666 4v18.667h2.667V4h16V1.333zm4 5.334H10.666a2.666 2.666 0 0 0-2.667 2.667v18.667a2.666 2.666 0 0 0 2.667 2.667h14.667A2.666 2.666 0 0 0 28 28.001V9.334a2.666 2.666 0 0 0-2.667-2.667zm0 21.333H10.666V9.333h14.667V28z"/></symbol><symbol id="icon-delete" viewBox="0 0 32 32"><path d="M8 25.333A2.666 2.666 0 0 0 10.667 28h10.667a2.666 2.666 0 0 0 2.667-2.667v-16h-16v16zm17.333-20h-4.667L19.333 4h-6.667l-1.333 1.333H6.666V8h18.667V5.333z"/></symbol><symbol id="icon-desktop" viewBox="0 0 32 32"><path d="M28 4H4a2.666 2.666 0 0 0-2.667 2.667v16A2.666 2.666 0 0 0 4 25.334h6.667v2.667h10.667v-2.667h6.667a2.654 2.654 0 0 0 2.653-2.667l.013-16A2.666 2.666 0 0 0 28 4zm0 18.667H4v-16h24v16z"/></symbol><symbol id="icon-done" viewBox="0 0 32 32"><path d="M12 21.56L6.44 16l-1.887 1.887L12 25.334l16-16-1.887-1.887z"/></symbol><symbol id="icon-edit" viewBox="0 0 32 32"><path d="M4 23v5h5l14.747-14.747-5-5L4 23zM27.613 9.387c.52-.52.52-1.36 0-1.88l-3.12-3.12c-.52-.52-1.36-.52-1.88 0l-2.44 2.44 5 5 2.44-2.44z"/></symbol><symbol id="icon-error" viewBox="0 0 32 32"><path d="M16 2.667C8.64 2.667 2.667 8.634 2.667 16S8.64 29.333 16 29.333 29.333 23.366 29.333 16 23.36 2.667 16 2.667zm1.333 20h-2.667V20h2.667v2.667zm0-5.334h-2.667v-8h2.667v8z"/></symbol><symbol id="icon-expand-less" viewBox="0 0 32 32"><path d="M16 10.667l-8 8 1.887 1.887L16 14.441l6.113 6.113L24 18.667z"/></symbol><symbol id="icon-expand-more" viewBox="0 0 32 32"><path d="M22.113 11.447L16 17.56l-6.113-6.113L8 13.334l8 8 8-8z"/></symbol><symbol id="icon-file-upload" viewBox="0 0 32 32"><path d="M25.8 13.387c-.907-4.6-4.947-8.053-9.8-8.053a9.996 9.996 0 0 0-8.867 5.387A7.993 7.993 0 0 0 0 18.668c0 4.413 3.587 8 8 8h17.333A6.67 6.67 0 0 0 32 20.001c0-3.52-2.733-6.373-6.2-6.613zm-7.133 3.946v5.333h-5.333v-5.333h-4l6.667-6.667 6.667 6.667h-4z"/></symbol><symbol id="icon-first-page" viewBox="0 0 32 32"><path d="M24.547 22.12L18.427 16l6.12-6.12L22.667 8l-8 8 8 8zM8 8h2.667v16H8z"/></symbol><symbol id="icon-grid" viewBox="0 0 32 32"><path d="M5.333 10.667h5.333V5.334H5.333v5.333zm8 16h5.333v-5.333h-5.333v5.333zm-8 0h5.333v-5.333H5.333v5.333zm0-8h5.333v-5.333H5.333v5.333zm8 0h5.333v-5.333h-5.333v5.333zm8-13.334v5.333h5.333V5.333h-5.333zm-8 5.334h5.333V5.334h-5.333v5.333zm8 8h5.333v-5.333h-5.333v5.333zm0 8h5.333v-5.333h-5.333v5.333z"/></symbol><symbol id="icon-info" viewBox="0 0 32 32"><path d="M14.667 22.667h2.667v-8h-2.667v8zm1.333-20C8.633 2.667 2.667 8.634 2.667 16S8.634 29.333 16 29.333 29.333 23.366 29.333 16 23.366 2.667 16 2.667zm0 24C10.12 26.667 5.333 21.88 5.333 16S10.12 5.333 16 5.333 26.667 10.12 26.667 16 21.88 26.667 16 26.667zM14.667 12h2.667V9.333h-2.667V12z"/></symbol><symbol id="icon-last-page" viewBox="0 0 32 32"><path d="M7.453 9.88l6.12 6.12-6.12 6.12L9.333 24l8-8-8-8zM21.333 8H24v16h-2.667z"/></symbol><symbol id="icon-list" viewBox="0 0 32 32"><path d="M5.333 18.667h5.333v-5.333H5.333v5.333zm0 6.666h5.333V20H5.333v5.333zm0-13.333h5.333V6.667H5.333V12zM12 18.667h16v-5.333H12v5.333zm0 6.666h16V20H12v5.333zm0-18.666V12h16V6.667H12z"/></symbol><symbol id="icon-loading" viewBox="0 0 32 32"><path d="M16 8v4l5.333-5.333L16 1.334v4c-5.893 0-10.667 4.773-10.667 10.667 0 2.093.613 4.033 1.653 5.68l1.947-1.947A7.907 7.907 0 0 1 8 16.001c0-4.42 3.58-8 8-8zm9.013 2.32l-1.947 1.947A7.907 7.907 0 0 1 23.999 16c0 4.42-3.58 8-8 8v-4l-5.333 5.333 5.333 5.333v-4c5.893 0 10.667-4.773 10.667-10.667 0-2.093-.613-4.033-1.653-5.68z"/></symbol><symbol id="icon-mobile" viewBox="0 0 32 32"><path d="M22.667 1.347L9.334 1.334a2.666 2.666 0 0 0-2.667 2.667v24a2.666 2.666 0 0 0 2.667 2.667h13.333a2.666 2.666 0 0 0 2.667-2.667v-24a2.654 2.654 0 0 0-2.667-2.653zm0 23.986H9.334V6.666h13.333v18.667z"/></symbol><symbol id="icon-more-horiz" viewBox="0 0 32 32"><path d="M8 13.333a2.666 2.666 0 1 0 0 5.334c1.474 0 2.667-1.193 2.667-2.667S9.474 13.333 8 13.333zm16 0a2.666 2.666 0 1 0 0 5.334c1.474 0 2.667-1.193 2.667-2.667S25.474 13.333 24 13.333zm-8 0a2.666 2.666 0 1 0 0 5.334c1.474 0 2.667-1.193 2.667-2.667S17.474 13.333 16 13.333z"/></symbol><symbol id="icon-more-vert" viewBox="0 0 32 32"><path d="M16 10.667a2.666 2.666 0 1 0 0-5.334c-1.474 0-2.667 1.193-2.667 2.667s1.193 2.667 2.667 2.667zm0 2.666a2.666 2.666 0 1 0 0 5.334c1.474 0 2.667-1.193 2.667-2.667S17.474 13.333 16 13.333zm0 8a2.666 2.666 0 1 0 0 5.334c1.474 0 2.667-1.193 2.667-2.667S17.474 21.333 16 21.333z"/></symbol><symbol id="icon-open" viewBox="0 0 32 32"><path d="M26.667 8H16l-2.667-2.667h-8A2.654 2.654 0 0 0 2.68 8l-.013 16a2.666 2.666 0 0 0 2.667 2.667h21.333A2.666 2.666 0 0 0 29.334 24V10.667A2.666 2.666 0 0 0 26.667 8zm0 16H5.334V10.667h21.333V24z"/></symbol><symbol id="icon-search" viewBox="0 0 32 32"><path d="M20.667 18.667h-1.06l-.367-.367a8.581 8.581 0 0 0 2.093-5.633C21.333 7.88 17.453 4 12.666 4s-8.667 3.88-8.667 8.667 3.88 8.667 8.667 8.667c2.153 0 4.12-.787 5.633-2.087l.367.367v1.053l6.667 6.653 1.987-1.987-6.653-6.667zm-8 0a6 6 0 0 1 0-12 6 6 0 0 1 0 12z"/></symbol><symbol id="icon-settings" viewBox="0 0 32 32"><path d="M25.907 17.3c.053-.427.093-.86.093-1.3s-.04-.873-.093-1.3l2.82-2.207c.253-.2.327-.56.16-.853L26.22 7.02a.66.66 0 0 0-.813-.287l-3.32 1.34a10.116 10.116 0 0 0-2.253-1.313l-.5-3.533a.686.686 0 0 0-.667-.56h-5.333a.674.674 0 0 0-.66.56l-.5 3.533c-.813.34-1.567.78-2.253 1.313l-3.32-1.34a.667.667 0 0 0-.813.287l-2.667 4.62a.667.667 0 0 0 .16.853L6.094 14.7c-.053.427-.093.86-.093 1.3s.04.873.093 1.3l-2.813 2.207a.665.665 0 0 0-.16.853l2.667 4.62a.66.66 0 0 0 .813.287l3.32-1.34c.687.527 1.44.973 2.253 1.313l.5 3.533c.053.313.327.56.66.56h5.333a.674.674 0 0 0 .66-.56l.5-3.533a9.868 9.868 0 0 0 2.253-1.313l3.32 1.34c.3.113.647 0 .813-.287l2.667-4.62a.667.667 0 0 0-.16-.853L25.907 17.3zM16 20.667c-2.58 0-4.667-2.087-4.667-4.667S13.42 11.333 16 11.333 20.667 13.42 20.667 16 18.58 20.667 16 20.667z"/></symbol><symbol id="icon-sort-asc" viewBox="0 0 32 32"><path d="M10 24V0H6v24H1l7 7 7-7h-5z"/><path d="M14 18h18v4H14v-4zM14 12h14v4H14v-4zM14 6h10v4H14V6zM14 0h6v4h-6V0z"/></symbol><symbol id="icon-sort-desc" viewBox="0 0 32 32"><path d="M10 24V0H6v24H1l7 7 7-7h-5zM14 0h18v4H14V0zM14 6h14v4H14V6zM14 12h10v4H14v-4z"/><path d="M14 18h6v4h-6v-4z"/></symbol><symbol id="icon-tablet" viewBox="0 0 32 32"><path d="M24.667 0H6a3.334 3.334 0 0 0-3.333 3.333v25.333A3.334 3.334 0 0 0 6 31.999h18.667A3.334 3.334 0 0 0 28 28.666V3.333A3.334 3.334 0 0 0 24.667 0zm-9.334 30.667c-1.107 0-2-.893-2-2s.893-2 2-2 2 .893 2 2-.893 2-2 2zm10-5.334h-20V4h20v21.333z"/></symbol><symbol id="icon-warning" viewBox="0 0 32 32"><path d="M1.333 28h29.333L15.999 2.667 1.332 28zm16-4h-2.667v-2.667h2.667V24zm0-5.333h-2.667v-5.333h2.667v5.333z"/></symbol></svg>