<?xml version="1.0" encoding="utf-8"?>
<!-- Generated by IcoMoon.io -->
<!DOCTYPE svg PUBLIC "-//W3C//DTD SVG 1.1//EN" "http://www.w3.org/Graphics/SVG/1.1/DTD/svg11.dtd">
<svg version="1.1" xmlns="http://www.w3.org/2000/svg" xmlns:xlink="http://www.w3.org/1999/xlink" width="32" height="32" viewBox="0 0 32 32">
<path d="M16 10.667c1.473 0 2.667-1.193 2.667-2.667s-1.193-2.667-2.667-2.667-2.667 1.193-2.667 2.667 1.193 2.667 2.667 2.667zM16 13.333c-1.473 0-2.667 1.193-2.667 2.667s1.193 2.667 2.667 2.667 2.667-1.193 2.667-2.667-1.193-2.667-2.667-2.667zM16 21.333c-1.473 0-2.667 1.193-2.667 2.667s1.193 2.667 2.667 2.667 2.667-1.193 2.667-2.667-1.193-2.667-2.667-2.667z"></path>
</svg>
