<?xml version="1.0" encoding="utf-8"?>
<!-- Generated by IcoMoon.io -->
<!DOCTYPE svg PUBLIC "-//W3C//DTD SVG 1.1//EN" "http://www.w3.org/Graphics/SVG/1.1/DTD/svg11.dtd">
<svg version="1.1" xmlns="http://www.w3.org/2000/svg" xmlns:xlink="http://www.w3.org/1999/xlink" width="32" height="32" viewBox="0 0 32 32">
<path d="M22 8v15.333c0 2.947-2.387 5.333-5.333 5.333s-5.333-2.387-5.333-5.333v-16.667c0-1.84 1.493-3.333 3.333-3.333s3.333 1.493 3.333 3.333v14c0 0.733-0.593 1.333-1.333 1.333s-1.333-0.6-1.333-1.333v-12.667h-2v12.667c0 1.84 1.493 3.333 3.333 3.333s3.333-1.493 3.333-3.333v-14c0-2.947-2.387-5.333-5.333-5.333s-5.333 2.387-5.333 5.333v16.667c0 4.053 3.287 7.333 7.333 7.333s7.333-3.28 7.333-7.333v-15.333h-2z"></path>
</svg>
