<?xml version="1.0" encoding="utf-8"?>
<!-- Generated by IcoMoon.io -->
<!DOCTYPE svg PUBLIC "-//W3C//DTD SVG 1.1//EN" "http://www.w3.org/Graphics/SVG/1.1/DTD/svg11.dtd">
<svg version="1.1" xmlns="http://www.w3.org/2000/svg" xmlns:xlink="http://www.w3.org/1999/xlink" width="32" height="32" viewBox="0 0 32 32">
<path d="M20.667 18.667h-1.060l-0.367-0.367c1.307-1.513 2.093-3.48 2.093-5.633 0-4.787-3.88-8.667-8.667-8.667s-8.667 3.88-8.667 8.667 3.88 8.667 8.667 8.667c2.153 0 4.12-0.787 5.633-2.087l0.367 0.367v1.053l6.667 6.653 1.987-1.987-6.653-6.667zM12.667 18.667c-3.313 0-6-2.687-6-6s2.687-6 6-6 6 2.687 6 6-2.687 6-6 6z"></path>
</svg>
