<?xml version="1.0" encoding="utf-8"?>
<!-- Generated by IcoMoon.io -->
<!DOCTYPE svg PUBLIC "-//W3C//DTD SVG 1.1//EN" "http://www.w3.org/Graphics/SVG/1.1/DTD/svg11.dtd">
<svg version="1.1" xmlns="http://www.w3.org/2000/svg" xmlns:xlink="http://www.w3.org/1999/xlink" width="32" height="32" viewBox="0 0 32 32">
<path d="M25.907 17.3c0.053-0.427 0.093-0.86 0.093-1.3s-0.040-0.873-0.093-1.3l2.82-2.207c0.253-0.2 0.327-0.56 0.16-0.853l-2.667-4.62c-0.167-0.287-0.513-0.407-0.813-0.287l-3.32 1.34c-0.687-0.527-1.44-0.973-2.253-1.313l-0.5-3.533c-0.060-0.313-0.333-0.56-0.667-0.56h-5.333c-0.333 0-0.607 0.247-0.66 0.56l-0.5 3.533c-0.813 0.34-1.567 0.78-2.253 1.313l-3.32-1.34c-0.3-0.113-0.647 0-0.813 0.287l-2.667 4.62c-0.167 0.287-0.093 0.647 0.16 0.853l2.813 2.207c-0.053 0.427-0.093 0.86-0.093 1.3s0.040 0.873 0.093 1.3l-2.813 2.207c-0.253 0.2-0.327 0.56-0.16 0.853l2.667 4.62c0.167 0.287 0.513 0.407 0.813 0.287l3.32-1.34c0.687 0.527 1.44 0.973 2.253 1.313l0.5 3.533c0.053 0.313 0.327 0.56 0.66 0.56h5.333c0.333 0 0.607-0.247 0.66-0.56l0.5-3.533c0.813-0.34 1.567-0.78 2.253-1.313l3.32 1.34c0.3 0.113 0.647 0 0.813-0.287l2.667-4.62c0.167-0.287 0.093-0.647-0.16-0.853l-2.813-2.207zM16 20.667c-2.58 0-4.667-2.087-4.667-4.667s2.087-4.667 4.667-4.667 4.667 2.087 4.667 4.667-2.087 4.667-4.667 4.667z"></path>
</svg>
