<?xml version="1.0" encoding="utf-8"?>
<!-- Generated by IcoMoon.io -->
<!DOCTYPE svg PUBLIC "-//W3C//DTD SVG 1.1//EN" "http://www.w3.org/Graphics/SVG/1.1/DTD/svg11.dtd">
<svg version="1.1" xmlns="http://www.w3.org/2000/svg" xmlns:xlink="http://www.w3.org/1999/xlink" width="32" height="32" viewBox="0 0 32 32">
<path d="M31.697 30.259l-8.262-8.13c2.164-2.351 3.493-5.459 3.493-8.88-0.001-7.318-6.028-13.249-13.464-13.249s-13.463 5.931-13.463 13.249 6.027 13.249 13.463 13.249c3.213 0 6.159-1.111 8.474-2.959l8.294 8.162c0.404 0.398 1.060 0.398 1.464 0s0.405-1.044 0.001-1.442zM13.463 24.46c-6.291 0-11.392-5.019-11.392-11.211s5.1-11.211 11.392-11.211c6.291 0 11.392 5.019 11.392 11.211s-5.1 11.211-11.392 11.211z"></path>
</svg>
